# xmcd
#
# Track frame offsets: 
#        150
#        9125
#        22923
#        29557
#        45553
#        57469
#        69485
#        77365
#        89088
#        99187
#        109230
#        118242
#
# Disc length: 1728 seconds
#
# Revision: 0
# Processed by: cddbd v1.5.1PL0 Copyright (c) Steve Scherf et al.
# Submitted via: ExactAudioCopy v0.95a5
#
DISCID=9006be0c
DTITLE=Okeh Wranglers 1989-1999 - Tearing Up The Old Dancehall
DYEAR=1999
DGENRE=Honky Tonk
TTITLE0=Song Of The Painted Desert
TTITLE1=You Got It Coming To You
TTITLE2=Leaving In The Morning
TTITLE3=Too Cool
TTITLE4=Heartbreaking Baby
TTITLE5=Gonna Walk Right Out Of Here
TTITLE6=Deed I Do
TTITLE7=Whole Lotta Trouble
TTITLE8=Torn Between Love And Hate
TTITLE9=Ain't Gonna Be No Plaything Anymore
TTITLE10=Let's Get Hot Tonight
TTITLE11=Blues On My Mind
EXTD=
EXTT0=
EXTT1=
EXTT2=
EXTT3=
EXTT4=
EXTT5=
EXTT6=
EXTT7=
EXTT8=
EXTT9=
EXTT10=
EXTT11=
PLAYORDER=
